 <svg  version="1.0" xmlns="http://www.w3.org/2000/svg"  width="193.000000pt" height="176.000000pt" viewBox="0 0 193.000000 176.000000"  preserveAspectRatio="xMidYMid meet">  <g transform="translate(0.000000,176.000000) scale(0.100000,-0.100000)" fill="#ffffff" stroke="none"> <path d="M960 1737 c0 -8 -13 -33 -30 -55 -35 -49 -37 -63 -10 -87 14 -12 20 -31 20 -57 0 -63 -52 -106 -120 -99 -8 1 -32 20 -53 42 -37 38 -38 41 -22 59 29 32 15 53 -59 82 -38 16 -71 26 -73 24 -3 -2 11 -26 30 -53 43 -60 57 -102 57 -166 0 -49 0 -49 -27 -42 -70 19 -98 -2 -41 -31 59 -30 155 -30 253 0 l86 27 56 -21 c73 -27 156 -35 223 -21 69 14 83 23 74 45 -5 13 -13 16 -33 11 -55 -15 -56 -14 -55 46 1 62 28 129 70 174 14 15 23 29 20 32 -5 6 -113 -35 -133 -50 -16 -12 -17 -49 -2 -64 15 -15 -22 -68 -60 -88 -61 -31 -141 24 -141 97 0 15 11 39 25 54 14 15 25 30 25 34 0 4 -13 24 -30 45 -16 21 -30 44 -30 51 0 7 -4 16 -10 19 -5 3 -10 0 -10 -8z m43 -93 c-3 -8 0 -14 7 -14 6 0 3 -11 -9 -27 -17 -20 -21 -39 -20 -80 1 -29 4 -51 7 -48 3 2 13 -7 24 -20 24 -31 78 -41 129 -25 22 7 37 15 34 18 -6 7 15 32 26 32 5 0 9 -5 9 -11 0 -5 -6 -7 -12 -3 -7 4 -5 -2 5 -13 9 -11 17 -30 17 -42 0 -12 5 -31 10 -42 10 -18 7 -19 -52 -19 -43 0 -89 9 -144 28 -65 22 -83 25 -93 15 -6 -7 -23 -13 -36 -13 -13 0 -27 -5 -31 -11 -3 -6 -15 -9 -25 -6 -11 3 -19 1 -19 -4 0 -5 -31 -9 -69 -9 l-70 0 14 26 c7 15 12 34 10 44 -2 9 -5 37 -6 61 -2 25 -15 64 -31 91 l-27 47 26 -10 c38 -14 71 -39 53 -40 -10 0 -11 -2 -3 -6 9 -3 10 -9 1 -23 -10 -15 -7 -25 12 -53 47 -69 127 -87 172 -40 11 12 26 20 32 16 6 -3 8 -2 3 2 -4 5 1 17 10 28 10 11 13 17 6 14 -8 -5 -8 2 0 28 9 30 8 37 -8 49 -10 7 -15 18 -11 24 4 8 2 10 -7 6 -8 -3 -18 0 -23 7 -5 8 -3 10 5 5 8 -5 11 -3 9 5 -1 8 6 27 16 42 l19 28 23 -22 c12 -11 20 -27 17 -35z m238 -85 c-11 -24 -20 -36 -20 -26 -1 10 -6 15 -11 12 -6 -4 -9 3 -7 15 4 23 26 42 39 34 4 -3 8 0 8 7 0 7 2 10 5 7 3 -3 -3 -25 -14 -49z"/> <path d="M340 1653 c-30 -16 -56 -34 -58 -42 -4 -10 0 -12 14 -7 11 4 44 10 74 13 99 10 163 -36 163 -116 0 -49 -27 -93 -82 -137 -55 -42 -69 -43 -40 -3 12 17 24 50 26 73 5 37 1 48 -23 75 -39 43 -79 49 -124 19 -45 -30 -60 -77 -36 -113 23 -34 72 -32 94 5 l16 25 -23 -22 c-12 -13 -29 -23 -39 -23 -15 0 -15 2 -2 10 12 8 9 10 -10 8 -21 -3 -25 2 -28 29 -4 35 25 69 67 80 27 7 72 -14 79 -36 3 -9 0 -11 -8 -6 -9 5 -11 4 -6 -4 4 -6 11 -9 16 -6 5 3 11 -3 15 -14 8 -26 -5 -72 -18 -64 -6 4 -7 1 -2 -6 4 -8 -2 -25 -15 -43 -25 -33 -19 -49 11 -30 11 7 25 10 31 6 7 -4 8 -3 4 4 -4 7 -3 12 3 12 17 0 81 61 97 91 20 40 18 108 -5 143 -26 39 -57 55 -106 57 -39 1 -39 1 -11 10 72 21 187 -48 198 -120 3 -18 0 -28 -5 -24 -6 4 -8 -3 -4 -17 15 -58 -58 -132 -167 -170 -32 -11 -73 -29 -91 -40 -18 -11 -39 -19 -47 -18 -7 2 -12 -2 -11 -9 2 -7 -6 -17 -17 -23 -17 -9 -19 -8 -13 7 4 10 20 29 36 42 81 68 111 156 67 196 -18 16 -20 16 -20 2 0 -10 7 -17 15 -17 18 0 20 -42 4 -73 -7 -12 -43 -55 -82 -96 -70 -74 -99 -125 -111 -193 -10 -55 9 -48 35 12 32 74 108 138 222 189 52 22 99 41 105 41 18 0 82 83 94 121 14 49 3 101 -29 140 -29 34 -94 68 -130 69 -13 0 -23 5 -23 10 0 18 -46 10 -100 -17z"/> <path d="M1490 1670 c0 -5 -10 -10 -23 -10 -13 0 -46 -12 -74 -26 -107 -53 -124 -183 -35 -267 15 -14 75 -47 135 -72 128 -56 193 -110 234 -193 28 -57 28 -57 31 -24 5 53 -38 129 -117 210 -45 45 -74 84 -78 102 -3 16 -9 27 -14 24 -14 -8 2 -56 28 -84 27 -29 28 -34 9 -49 -9 -8 -16 -8 -20 -2 -4 5 -23 15 -44 21 -65 21 -111 43 -106 52 3 4 0 8 -6 8 -7 0 -10 6 -7 13 4 10 -2 13 -20 9 -18 -3 -24 -1 -19 7 4 6 1 11 -8 11 -10 0 -13 6 -9 17 4 11 3 14 -5 9 -8 -5 -10 -2 -6 8 3 9 1 16 -5 16 -28 0 0 115 36 152 12 11 33 21 47 21 14 0 24 3 21 6 -2 4 17 8 43 8 36 0 39 -1 12 -4 -19 -3 -46 -13 -61 -23 -14 -11 -30 -16 -34 -12 -5 4 -5 2 -2 -5 8 -13 -2 -45 -12 -39 -4 3 -7 -16 -6 -42 2 -52 21 -96 55 -127 12 -11 26 -30 31 -43 7 -17 14 -22 29 -17 11 3 20 3 20 -2 0 -5 15 -9 33 -10 l32 -2 -30 9 c-45 14 -132 95 -145 136 -17 49 -5 98 30 128 38 32 78 40 157 31 78 -8 78 4 -1 41 -53 25 -96 31 -96 14z"/> <path d="M1554 1540 c-35 -14 -64 -59 -64 -100 0 -38 34 -101 58 -106 7 -1 8 0 2 3 -5 2 -10 13 -10 23 0 27 -11 51 -20 45 -13 -8 -5 56 10 87 18 37 64 47 99 20 17 -13 25 -27 23 -43 -1 -13 -4 -31 -5 -40 -1 -10 -7 -15 -16 -11 -9 3 -12 1 -7 -6 4 -7 3 -12 -1 -12 -5 0 -14 9 -21 20 -15 25 -34 26 -25 3 9 -24 23 -33 54 -33 35 0 49 17 49 60 0 39 -11 58 -50 84 -27 18 -44 19 -76 6z"/> <path d="M1562 1468 c-7 -7 -12 -19 -12 -27 1 -10 5 -7 14 8 10 18 15 20 19 10 4 -10 6 -9 6 4 1 20 -10 22 -27 5z"/> <path d="M910 1298 c-70 -25 -200 -34 -269 -19 -30 6 -56 10 -58 8 -2 -2 3 -30 12 -63 20 -79 19 -163 -5 -286 -26 -130 -29 -228 -8 -260 17 -26 22 -29 174 -96 61 -28 130 -62 152 -76 23 -14 47 -26 53 -26 6 0 77 32 158 71 80 39 162 78 181 87 76 36 83 98 38 327 -20 104 -21 122 -10 197 7 46 15 94 19 107 6 22 4 23 -28 15 -64 -17 -239 -9 -299 13 -55 20 -55 20 -110 1z m130 -22 c57 -17 96 -23 163 -22 48 1 87 -2 87 -6 0 -4 5 -8 11 -8 5 0 7 5 4 10 -3 6 -1 10 5 10 9 0 10 -18 5 -62 -4 -35 -10 -64 -14 -65 -8 -4 -6 -88 3 -102 4 -6 10 -37 13 -69 3 -31 10 -63 16 -69 6 -9 5 -13 -4 -13 -9 0 -10 -3 -4 -8 11 -7 13 -25 16 -109 1 -53 -9 -73 -43 -86 -10 -3 -18 -11 -18 -16 0 -8 -63 -36 -66 -29 -1 2 -10 -4 -20 -13 -11 -9 -34 -20 -51 -24 -18 -3 -35 -11 -39 -16 -12 -20 -117 -59 -148 -55 -41 5 -106 34 -106 47 0 5 -4 7 -10 4 -5 -3 -28 4 -51 15 -23 12 -51 23 -62 26 -11 2 -23 7 -26 11 -11 15 -72 43 -66 30 6 -10 -3 0 -32 38 -13 18 -17 37 -16 89 1 59 23 187 32 182 9 -6 6 189 -4 248 l-8 48 79 -6 c57 -5 101 -3 159 9 44 9 86 17 93 18 6 0 12 4 12 9 0 11 6 10 90 -16z"/> <path d="M714 1000 c-12 -5 -30 -21 -41 -37 -22 -31 -40 -88 -24 -79 5 3 12 -5 15 -18 8 -31 32 -56 54 -56 14 1 14 3 -3 12 -33 18 -45 40 -45 81 0 32 7 46 36 73 19 19 34 34 32 33 -2 0 -13 -4 -24 -9z"/> <path d="M1090 993 c0 -6 5 -15 10 -18 14 -9 12 -72 -2 -78 -10 -4 -10 -6 0 -6 6 -1 12 -8 12 -16 0 -8 -6 -15 -12 -15 -9 0 -8 -3 2 -10 12 -8 12 -10 -3 -16 -19 -7 -24 -28 -4 -21 6 2 20 0 30 -5 11 -5 17 -5 17 2 0 5 -6 10 -12 10 -10 0 -13 24 -13 85 0 83 0 85 25 85 19 0 21 -3 12 -12 -13 -13 -16 -68 -4 -68 14 0 50 43 61 73 6 15 7 27 2 27 -5 0 -11 -14 -15 -32 -7 -34 -21 -30 -21 5 0 19 -6 22 -42 22 -27 0 -43 -5 -43 -12z"/> <path d="M912 988 c-7 -7 -12 -22 -12 -34 0 -32 18 -76 29 -70 5 3 23 -1 40 -10 27 -14 30 -18 19 -32 -11 -13 -11 -14 2 -10 26 8 17 42 -15 57 -64 30 -79 58 -48 93 18 20 4 25 -15 6z"/> <path d="M1223 962 c-18 -20 -33 -41 -33 -47 0 -5 21 -32 46 -60 37 -40 45 -45 39 -25 -4 14 -13 30 -21 36 -8 6 -14 17 -14 23 0 7 -4 10 -9 7 -5 -3 -14 1 -21 9 -9 11 -8 19 7 39 10 14 26 28 36 31 9 4 17 11 17 16 0 18 -15 8 -47 -29z"/> <path d="M716 958 c-9 -12 -16 -36 -16 -53 0 -32 24 -75 42 -75 7 0 7 4 0 13 -24 29 -30 63 -17 100 15 43 12 46 -9 15z"/> <path d="M935 970 c-9 -14 11 -38 38 -46 57 -17 75 -70 35 -98 -12 -9 -18 -16 -12 -16 22 0 47 28 47 54 0 25 -41 82 -51 71 -10 -10 -41 16 -36 30 7 17 -11 21 -21 5z"/> <path d="M997 960 c23 -26 33 -25 32 3 0 20 -1 20 -8 3 -7 -18 -8 -18 -14 -3 -3 9 -11 17 -17 17 -5 0 -2 -9 7 -20z"/> <path d="M777 903 c-4 -3 -2 -12 4 -20 6 -7 9 -23 6 -35 -6 -20 -5 -20 11 -4 14 13 14 20 4 36 -11 18 -10 20 20 20 25 0 29 -3 20 -12 -7 -7 -12 -21 -12 -33 0 -14 -9 -24 -27 -31 l-28 -10 23 -6 c13 -4 21 -4 18 -1 -3 3 6 15 20 26 18 14 22 22 14 27 -9 5 -9 9 -1 14 26 16 11 36 -27 36 -21 0 -42 -3 -45 -7z"/> <path d="M1145 881 c-9 -30 14 -71 38 -67 30 4 32 22 5 55 -27 35 -35 37 -43 12z"/> <path d="M900 847 c0 -21 4 -37 9 -37 4 0 6 12 3 27 -5 26 -4 27 12 10 10 -9 23 -17 29 -16 9 0 9 2 0 5 -7 3 -11 11 -9 17 1 7 1 8 -2 4 -2 -5 -13 -1 -23 9 -18 16 -19 16 -19 -19z"/> <path d="M526 1298 c-2 -7 -7 -26 -11 -41 -5 -27 -79 -117 -95 -117 -5 0 -3 13 3 29 5 15 7 36 3 46 -6 17 -9 15 -26 -13 -11 -17 -45 -46 -77 -64 -67 -38 -124 -93 -148 -144 -12 -26 -20 -33 -28 -25 -29 29 -107 -4 -107 -44 0 -20 14 -19 31 1 12 15 15 14 31 -6 10 -12 18 -35 18 -51 0 -105 49 -183 162 -260 73 -50 98 -46 35 5 -26 21 -60 58 -77 84 -57 86 -31 186 59 227 54 24 87 10 108 -45 9 -22 20 -40 25 -40 14 0 9 80 -8 116 -22 45 -47 58 -102 50 -41 -5 -43 -5 -31 11 20 23 86 50 144 58 105 15 132 51 120 160 -6 62 -20 92 -29 63z m16 -134 c-2 -14 -11 -28 -18 -31 -8 -3 -11 -9 -8 -14 3 -5 -3 -6 -12 -2 -12 4 -15 3 -10 -5 5 -8 -4 -12 -28 -12 -19 0 -45 -4 -58 -9 -13 -5 -35 -12 -49 -15 -24 -5 -99 -67 -99 -82 0 -4 24 -4 53 -1 49 6 51 5 32 -10 -20 -16 -20 -16 0 -9 34 12 36 12 52 -11 14 -21 14 -22 -14 -18 -15 2 -38 6 -50 9 -13 3 -23 0 -23 -6 0 -5 -7 -7 -16 -4 -8 3 -12 2 -9 -4 3 -6 0 -10 -8 -10 -8 0 -22 -9 -32 -20 -10 -11 -22 -17 -28 -13 -6 3 -7 1 -3 -5 4 -6 -2 -30 -13 -52 -19 -40 -19 -41 0 -92 24 -66 24 -70 -1 -33 -11 17 -20 26 -21 20 -2 -24 -38 93 -38 126 -1 20 -10 48 -21 62 -11 14 -20 28 -20 31 0 10 38 7 45 -4 11 -17 21 -11 37 23 25 50 89 119 105 113 8 -3 12 -2 8 3 -3 5 12 19 32 32 21 12 49 32 62 43 l23 21 -6 -32 -7 -32 30 12 c17 6 31 15 31 19 0 4 6 8 13 8 8 0 19 12 26 27 13 27 13 27 28 8 16 -20 16 -20 9 0 -9 24 -9 25 -6 50 1 11 6 3 10 -18 4 -21 5 -49 2 -63z"/> <path d="M1387 1304 c-11 -19 -19 -113 -13 -149 8 -40 52 -75 97 -75 44 0 127 -30 156 -55 l28 -25 -43 6 c-53 8 -86 -7 -107 -51 -17 -37 -21 -115 -5 -115 6 0 10 9 10 21 0 24 51 79 75 79 31 0 93 -40 114 -73 44 -72 21 -150 -71 -238 -72 -69 -64 -76 22 -17 104 71 150 137 150 218 0 35 19 98 31 106 6 3 18 -1 28 -10 20 -19 31 -13 24 13 -9 37 -53 48 -104 27 -12 -5 -18 -1 -23 17 -9 37 -82 113 -141 147 -30 17 -68 48 -85 68 -30 36 -30 36 -30 10 0 -36 10 -59 22 -52 5 3 18 -3 29 -15 11 -12 25 -18 32 -14 8 5 8 2 -1 -9 -10 -13 -9 -15 14 -10 21 4 25 2 19 -8 -6 -10 -4 -12 9 -7 11 5 15 3 10 -5 -5 -7 -2 -9 7 -6 8 3 23 -4 34 -15 11 -11 14 -17 5 -13 -8 4 -1 -5 15 -19 17 -15 24 -24 18 -21 -23 12 -14 -4 21 -39 35 -37 51 -43 59 -22 4 9 6 9 6 -1 1 -7 7 -10 14 -7 6 4 5 1 -4 -7 -9 -7 -14 -19 -12 -25 3 -7 0 -13 -6 -13 -6 0 -8 -6 -5 -14 3 -8 1 -17 -5 -21 -7 -3 -9 -24 -6 -48 3 -23 2 -36 -1 -29 -5 10 -9 9 -20 -5 -13 -17 -14 -16 -11 6 7 52 -56 151 -96 151 -10 0 -16 4 -12 9 3 6 -3 10 -12 10 -10 1 -25 1 -33 2 -8 1 -24 -2 -35 -6 -17 -6 -16 -5 3 10 13 9 29 14 37 11 8 -3 15 0 15 5 0 7 11 9 25 7 29 -6 42 7 26 26 -6 7 -7 17 -3 21 4 5 1 5 -5 1 -8 -4 -13 -1 -13 8 0 10 -6 13 -17 9 -12 -5 -15 -2 -11 8 4 11 -3 16 -31 17 -20 2 -41 9 -47 18 -9 12 -23 13 -65 8 -30 -4 -51 -3 -47 1 4 4 -3 16 -15 26 -13 11 -17 18 -9 19 10 0 10 4 -2 16 -20 19 -20 25 -1 50 14 18 15 17 9 -11 -4 -20 -2 -25 4 -17 7 11 11 11 20 0 5 -7 11 -17 11 -23 1 -5 4 -10 9 -10 4 -1 21 -8 38 -18 29 -15 33 -15 45 0 12 14 11 15 -9 9 -32 -11 -96 57 -115 121 -8 26 -16 42 -20 37z"/> <path d="M465 1290 c-7 -12 5 -60 16 -60 14 0 29 37 23 54 -7 18 -30 21 -39 6z"/> <path d="M1436 1293 c-9 -9 -7 -46 3 -62 7 -11 13 -7 25 17 15 29 15 32 -3 41 -10 6 -21 7 -25 4z"/> <path d="M518 1079 c-10 -5 -18 -20 -18 -32 0 -12 -9 -69 -21 -127 -15 -75 -19 -124 -15 -173 l6 -67 -42 31 c-24 16 -50 42 -58 57 -12 23 -15 24 -18 9 -2 -10 1 -32 7 -49 11 -31 11 -31 -9 -13 -27 25 -25 12 3 -17 29 -30 52 -36 37 -9 -6 11 -6 22 -1 25 11 7 33 -18 24 -27 -6 -7 11 -11 34 -8 6 1 14 -3 18 -9 12 -19 24 -10 27 22 l3 33 11 -42 c6 -23 7 -40 2 -37 -5 3 -16 -4 -26 -15 -20 -25 -65 -19 -55 7 4 9 2 13 -4 9 -25 -16 -94 43 -97 82 -2 24 -45 101 -56 101 -29 0 6 -96 53 -148 40 -43 161 -112 197 -112 8 0 29 -7 45 -16 17 -9 59 -27 95 -42 133 -54 257 -127 275 -163 20 -38 34 -37 68 6 15 19 56 50 91 70 72 40 285 137 344 156 132 42 228 140 220 222 -3 32 -3 31 -38 -28 -19 -33 -33 -63 -33 -66 1 -3 -5 -6 -13 -6 -10 0 -13 6 -8 16 10 24 17 71 10 71 -3 0 -12 -13 -20 -29 -12 -22 -73 -71 -90 -71 -2 0 -1 30 1 68 6 82 -31 301 -55 319 -20 16 -33 7 -28 -20 53 -253 56 -329 18 -404 -25 -48 -43 -60 -156 -107 -104 -43 -221 -108 -257 -142 l-25 -24 -30 31 c-26 28 -161 99 -305 162 -36 16 -67 38 -85 63 -26 33 -29 47 -32 119 -3 56 3 115 17 185 30 146 29 163 -11 139z m1025 -386 c-5 -13 -2 -15 12 -10 15 6 16 5 5 -8 -13 -16 -57 -38 -98 -50 -12 -4 -20 -11 -17 -16 10 -15 -12 -10 -25 6 -9 11 -9 15 -1 15 7 0 9 5 6 10 -3 6 -2 10 4 10 6 0 7 8 4 18 -6 15 -5 15 10 3 9 -7 17 -9 17 -3 0 5 7 13 16 16 8 3 12 2 9 -4 -3 -6 1 -10 10 -10 11 0 15 5 11 16 -3 8 -2 12 3 9 5 -3 12 -1 16 5 10 17 25 11 18 -7z m-1008 -73 c3 -5 1 -10 -5 -10 -7 0 -10 -6 -7 -14 5 -12 1 -13 -24 -4 -24 8 -27 13 -18 24 13 16 45 19 54 4z"/> <path d="M210 581 c0 -13 101 -88 143 -106 20 -8 46 -15 57 -15 31 0 24 -20 -7 -21 -27 -1 -26 -1 6 -11 28 -8 46 -5 103 16 81 30 105 32 177 10 29 -8 55 -13 58 -10 3 2 -21 17 -54 32 -54 26 -68 28 -193 29 -143 2 -165 7 -235 55 -46 32 -55 35 -55 21z m282 -108 c-6 -2 -9 -9 -6 -15 4 -5 -4 -4 -17 2 -36 19 -35 20 2 19 19 0 28 -3 21 -6z"/> <path d="M1669 564 c-67 -51 -95 -58 -239 -59 -127 -1 -138 -2 -188 -29 -62 -31 -65 -42 -7 -21 59 21 106 18 183 -11 57 -21 75 -24 103 -16 32 10 33 10 7 11 -32 1 -39 21 -8 21 34 0 109 41 158 86 52 47 46 59 -9 18z"/> <path d="M645 413 c-75 -12 -125 -26 -125 -34 0 -5 14 -9 31 -9 17 0 56 -7 87 -16 52 -15 55 -18 35 -27 -34 -15 -28 -24 21 -35 31 -6 63 -5 107 4 35 8 75 14 89 14 20 0 22 2 10 10 -8 5 -31 7 -50 4 -34 -5 -34 -5 -15 12 19 16 19 16 -10 9 -16 -3 -32 -10 -35 -14 -7 -11 -50 -20 -66 -14 -8 3 -14 11 -14 18 0 7 -13 18 -30 24 -38 13 -39 23 -2 16 15 -3 21 -2 14 1 -6 3 -10 10 -6 15 3 5 11 6 17 2 7 -4 21 -9 32 -10 10 -2 22 -8 25 -12 3 -5 18 -13 34 -17 19 -4 27 -3 23 3 -7 11 37 4 78 -13 18 -7 18 -6 7 9 -17 20 -78 41 -93 31 -8 -4 -9 -3 -5 4 4 7 -6 13 -26 16 -58 9 -112 12 -133 9z"/> <path d="M1147 404 c-9 -3 -15 -10 -12 -15 3 -5 -1 -6 -9 -3 -16 6 -113 -33 -103 -42 3 -3 14 -1 24 4 30 15 85 23 77 11 -11 -18 38 1 65 25 13 11 21 15 16 7 -6 -11 -3 -13 13 -9 14 4 20 2 15 -5 -4 -6 0 -8 10 -4 9 3 19 2 22 -3 3 -5 -6 -12 -20 -16 -15 -4 -24 -12 -23 -21 4 -19 -69 -26 -80 -8 -4 7 -18 16 -32 20 -23 7 -24 7 -10 -10 14 -17 13 -18 -20 -13 -68 10 -64 -6 5 -18 105 -19 195 -16 195 6 0 4 -10 12 -22 17 -22 10 -21 11 17 22 22 6 61 14 88 18 49 6 59 16 30 28 -22 9 -221 16 -246 9z"/> <path d="M228 218 c15 -15 16 -128 1 -128 -5 0 -7 -4 -4 -10 3 -5 33 -10 66 -10 53 0 61 3 68 22 13 33 1 44 -19 18 -10 -13 -25 -21 -36 -18 -24 4 -33 48 -10 48 9 0 16 -5 16 -11 0 -5 5 -7 10 -4 13 8 13 55 1 55 -6 0 -13 -4 -16 -10 -11 -18 -25 -10 -25 15 0 29 30 35 50 10 16 -19 36 -4 27 19 -5 12 -22 16 -74 16 -52 0 -64 -3 -55 -12z"/> <path d="M498 218 c14 -14 16 -128 2 -128 -5 0 -10 -4 -10 -10 0 -5 24 -10 53 -10 77 0 121 37 82 70 -9 7 -12 22 -9 40 8 36 -16 50 -82 50 -37 0 -45 -3 -36 -12z m77 -33 c0 -10 -6 -20 -12 -22 -8 -3 -13 5 -13 22 0 17 5 25 13 23 6 -3 12 -13 12 -23z m13 -67 c-2 -13 -10 -23 -18 -23 -8 0 -16 10 -18 23 -3 17 2 22 18 22 16 0 21 -5 18 -22z"/> <path d="M668 173 c6 -77 23 -103 67 -103 47 0 65 22 65 80 0 27 5 52 10 55 20 12 10 25 -19 25 -33 0 -49 -15 -26 -24 10 -3 15 -19 15 -43 0 -49 -11 -66 -41 -61 -21 3 -24 9 -27 56 -2 31 1 52 7 52 6 0 11 5 11 10 0 6 -15 10 -33 10 l-34 0 5 -57z"/> <path d="M860 216 c-21 -27 -8 -60 33 -80 30 -14 36 -21 26 -32 -16 -19 -25 -18 -48 7 -21 23 -36 12 -27 -19 9 -27 77 -29 100 -3 25 28 16 53 -27 76 -20 11 -37 26 -37 33 0 17 25 15 40 -3 17 -21 30 -19 30 4 0 32 -67 44 -90 17z"/> <path d="M990 221 c0 -6 5 -13 10 -16 9 -6 7 -50 -6 -112 -4 -20 0 -23 31 -23 34 0 46 12 25 25 -5 3 -10 28 -10 55 0 27 5 52 10 55 21 13 9 25 -25 25 -19 0 -35 -4 -35 -9z"/> <path d="M1090 220 c0 -5 5 -10 10 -10 6 0 10 -24 10 -54 0 -30 -4 -58 -10 -61 -20 -12 -9 -25 21 -25 26 0 30 3 23 18 -9 21 -18 92 -11 92 2 0 21 -25 41 -55 35 -53 62 -69 71 -42 2 6 5 42 7 80 4 64 3 67 -18 67 -13 0 -26 -4 -29 -10 -3 -5 -1 -10 4 -10 6 0 11 -17 11 -38 0 -32 -3 -38 -22 -39 -17 -2 -19 0 -8 7 11 7 9 16 -14 49 -22 32 -35 41 -57 41 -16 0 -29 -4 -29 -10z"/> <path d="M1295 150 l0 -80 61 0 c58 0 62 2 66 25 7 33 -4 39 -26 14 -21 -25 -50 -21 -54 9 -3 22 12 30 23 12 12 -20 25 -9 25 20 0 29 -13 40 -25 20 -11 -18 -25 -10 -25 15 0 29 30 35 50 10 16 -19 36 -4 27 19 -5 12 -21 16 -64 16 l-58 0 0 -80z"/> <path d="M1460 216 c-20 -26 -8 -60 30 -78 19 -10 35 -24 35 -30 0 -21 -33 -20 -51 1 -21 24 -34 19 -27 -9 3 -12 17 -22 38 -26 45 -8 75 10 75 44 0 21 -8 31 -37 47 -36 19 -46 36 -25 43 5 1 17 -4 25 -13 22 -21 27 -19 27 10 0 22 -4 25 -39 25 -21 0 -44 -6 -51 -14z"/> <path d="M1606 211 c-24 -26 -15 -46 29 -72 38 -23 44 -36 18 -46 -10 -4 -23 2 -34 15 -22 28 -29 28 -29 -3 0 -20 6 -25 35 -31 25 -4 43 -1 61 11 36 23 28 55 -18 80 -21 11 -38 26 -38 33 0 17 25 15 40 -3 18 -22 32 -18 28 8 -4 31 -66 37 -92 8z"/> <path d="M390 135 c0 -13 8 -16 38 -13 20 2 37 8 37 13 0 6 -17 11 -37 13 -30 3 -38 0 -38 -13z"/> </g> </svg> 